<svg width="36" height="36" viewBox="0 0 36 36" fill="none" xmlns="http://www.w3.org/2000/svg">
<g opacity="0.5">
<path d="M16.5 24C16.2239 24 16 24.2239 16 24.5C16 24.7761 16.2239 25 16.5 25H19.5C19.7761 25 20 24.7761 20 24.5C20 24.2239 19.7761 24 19.5 24H16.5Z" fill="#4D5150"/>
<path fill-rule="evenodd" clip-rule="evenodd" d="M14 8C12.8954 8 12 8.89543 12 10V26C12 27.1046 12.8954 28 14 28H22C23.1046 28 24 27.1046 24 26V10C24 8.89543 23.1046 8 22 8H14ZM22 10H21C21 10.5523 20.5522 11 20 11H16C15.4478 11 15 10.5523 15 10H14V26H22V10Z" fill="#4D5150"/>
</g>
</svg>
