<svg width="36" height="36" viewBox="0 0 36 36" fill="none" xmlns="http://www.w3.org/2000/svg">
<path fill-rule="evenodd" clip-rule="evenodd" d="M20.0829 22.4965C16.5492 25.3267 11.3766 25.1039 8.10088 21.8282C4.58616 18.3135 4.58616 12.615 8.10088 9.10029C11.6156 5.58557 17.3141 5.58557 20.8288 9.10029C24.1045 12.376 24.3273 17.5486 21.4971 21.0823L28.607 28.1922L27.1928 29.6064L20.0829 22.4965ZM19.4146 20.414C16.6809 23.1477 12.2488 23.1477 9.5151 20.414C6.78143 17.6803 6.78143 13.2482 9.5151 10.5145C12.2488 7.78083 16.6809 7.78083 19.4146 10.5145C22.1483 13.2482 22.1483 17.6803 19.4146 20.414Z" fill="#4D5150"/>
</svg>
