<svg width="185" height="81" viewBox="0 0 185 81" fill="none" xmlns="http://www.w3.org/2000/svg">
<path d="M176.996 70.2596L181.799 77.5072C182.236 78.2057 182.847 78.6423 183.371 78.9916C183.633 79.1662 184.331 79.5155 184.768 79.5155V80.476H176.734V79.5155C176.822 79.5155 177.52 79.4282 177.957 79.1662C178.393 78.9916 178.568 78.3803 178.132 77.8564L174.901 72.9665L171.233 77.9438C170.535 78.7296 171.146 79.3409 172.019 79.4282V80.3887H166.081V79.3409C167.479 79.1662 168.002 78.555 168.614 77.7691L173.678 71.0455L169.225 64.4092C168.526 63.3614 167.391 62.6629 166.343 62.6629V61.7023H174.464V62.6629C173.504 62.7502 172.194 63.0995 172.892 64.1473L175.687 68.3386L178.83 64.1473C179.529 63.3614 179.005 62.7502 177.957 62.6629V61.7023H183.982V62.6629C183.021 62.7502 182.497 63.0995 181.886 63.7107L176.996 70.2596ZM150.189 70.9582C150.102 74.8003 151.412 78.9916 155.254 78.9916C159.183 78.9916 160.144 74.7129 160.056 70.8709C159.969 67.1161 159.271 63.2741 155.254 63.2741C150.975 63.1868 150.277 67.2035 150.189 70.9582ZM164.073 71.3075C163.986 76.1974 160.668 80.9126 155.341 80.9126C149.927 80.9126 146.435 76.634 146.347 71.1328C146.26 66.0683 149.753 61.2657 155.341 61.2657C160.755 61.3531 164.16 66.243 164.073 71.3075ZM140.759 80.476H140.06L128.185 66.6796V77.9438C128.185 78.3803 128.534 78.8169 128.971 79.1662C129.495 79.5155 129.931 79.5155 130.368 79.5155V80.476H124.081V79.5155C124.43 79.4282 124.779 79.4282 125.129 79.2535C125.74 79.0789 126.176 78.555 126.176 77.9438V64.5839C125.74 63.6234 124.692 62.7502 123.47 62.7502V61.7897H128.359L138.663 74.0144V64.3219C138.663 63.2741 137.441 62.7502 136.48 62.7502V61.7897H142.854V62.7502C141.807 62.8375 140.671 63.1868 140.671 64.3219V80.476H140.759ZM116.833 78.0311C116.833 78.6423 117.183 78.9916 117.794 79.2535C118.143 79.4282 118.667 79.6028 119.016 79.6028V80.5633H111.507V79.6028C111.769 79.5155 112.555 79.3409 112.817 79.1662C113.253 78.9043 113.602 78.6423 113.602 78.0311V64.3219C113.602 63.2741 112.293 62.9248 111.42 62.7502V61.7897H118.929V62.7502C117.881 62.9248 116.746 63.1868 116.746 64.3219V78.0311H116.833ZM97.7977 63.7107C97.623 63.7107 96.9245 63.798 95.8767 63.8853V71.8314H99.0202C101.378 71.6568 102.338 70.4343 102.338 67.6401C102.338 64.06 100.243 63.7107 97.7977 63.7107ZM107.577 80.476H103.037L99.0202 73.4905H95.7893V77.9438C95.7893 78.6423 96.3133 79.3409 98.0596 79.5155L98.147 80.476H90.2882V79.4282C90.8121 79.4282 91.2487 79.3409 91.6853 79.0789C92.1219 78.9043 92.6458 78.3803 92.6458 77.7691V64.5839C92.6458 63.3614 91.3361 62.9248 90.1136 62.7502V61.7897H99.1075C102.251 61.7897 106.006 63.8853 106.006 67.4654C106.006 69.2991 105.22 72.006 102.164 72.9665L105.22 78.0311C105.744 78.8169 106.442 79.4282 107.665 79.5155L107.577 80.476ZM72.5624 71.0455C72.4751 74.8876 73.7849 79.0789 77.5396 79.0789C81.469 79.0789 82.4295 74.8003 82.3422 70.9582C82.2548 67.2035 81.6436 63.3614 77.5396 63.3614C73.2609 63.2741 72.5624 67.2035 72.5624 71.0455ZM86.3588 71.3075C86.2715 76.1974 82.9534 80.9126 77.6269 80.9126C72.2131 80.9126 68.7203 76.634 68.633 71.1328C68.5457 66.0683 72.0385 61.2657 77.6269 61.2657C83.0407 61.3531 86.4462 66.243 86.3588 71.3075ZM60.163 63.798V77.8564C60.163 78.555 60.5996 78.9916 61.3855 79.2535C61.7348 79.4282 62.1714 79.4282 62.608 79.5155V80.476H54.7492V79.5155C55.1858 79.4282 55.5351 79.4282 56.1464 79.1662C56.6703 78.9916 57.1942 78.4677 57.1942 77.7691L57.1069 63.798H54.6619C53.1775 63.798 52.7409 64.4092 52.4789 65.1078C52.3043 65.6317 52.217 66.243 52.217 66.7669L51.1691 66.6796V61.7897H66.2754V66.7669H65.1402C65.0529 65.981 64.9656 65.3698 64.7036 64.8458C64.3544 64.1473 63.7431 63.798 63.0446 63.798H60.163ZM47.5891 61.7897L47.6764 67.0288H46.7159C46.4539 65.981 46.1919 65.1078 45.7553 64.4966C45.0568 63.6234 44.0963 63.1868 42.6992 63.1868C37.8966 63.1868 37.46 67.9893 37.46 71.0455C37.46 74.189 37.9839 79.0789 43.0484 78.9043C44.6202 78.8169 46.8905 77.9437 48.4622 76.0227L48.6369 75.8481L49.6847 76.634L49.5974 76.7213C47.851 79.7775 44.5329 80.9126 42.4372 80.9126C36.4995 80.9126 33.4433 75.6734 33.4433 71.2202C33.4433 67.6401 35.6263 61.4404 41.3021 61.4404C43.485 61.4404 45.1441 61.9643 46.5412 62.6629L46.7159 61.7897H47.5891ZM27.8549 78.0311C27.8549 78.6423 28.2042 78.9916 28.8154 79.2535C29.1647 79.4282 29.6886 79.6028 30.0379 79.6028V80.5633H22.5284V79.6028C22.7904 79.5155 23.5762 79.3409 23.8382 79.1662C24.2748 78.9043 24.6241 78.6423 24.6241 78.0311V64.3219C24.6241 63.2741 23.3143 62.9248 22.4411 62.7502V61.7897H29.9505V62.7502C28.9027 62.9248 27.7676 63.1868 27.7676 64.3219V78.0311H27.8549ZM10.391 75.8481L14.6697 64.3219C14.9316 63.5361 14.5823 63.0121 13.1852 62.7502V61.7023H19.5595V62.8375C18.3371 62.8375 17.4639 63.0995 16.94 64.4966L10.653 80.9999H9.25585L2.2703 64.4092C1.57175 62.9248 0.523916 62.8375 0 62.8375V61.7897H7.33483V62.8375C6.11236 63.0121 5.8504 63.7107 6.02504 64.1473L10.391 75.8481Z" fill="#130C15"/>
<path d="M77.0157 21.8848C77.0157 16.8203 76.1425 11.9304 74.6581 7.38977V7.30245C75.8806 6.69122 78.2382 5.46874 80.6831 4.15895C83.3027 2.76184 86.1842 1.45205 87.6687 1.10278C89.5897 0.753499 91.3361 1.27742 92.3839 2.93648C93.4317 1.27742 95.1781 0.753499 97.0992 1.10278C98.5836 1.36473 101.465 2.76184 104.085 4.15895C106.53 5.46874 108.887 6.69122 110.11 7.30245V7.38977C108.625 11.9304 107.752 16.8203 107.752 21.8848C107.752 26.6874 108.713 31.3153 110.022 35.7686V35.8559C101.989 38.8247 97.0992 42.5795 92.4712 47.382H92.3839C87.756 42.5795 82.8661 38.8247 74.8327 35.8559V35.7686C76.0552 31.3153 77.0157 26.6874 77.0157 21.8848Z" fill="white"/>
<path d="M77.0157 21.8848C77.0157 16.8203 76.1425 11.9304 74.6581 7.38977V7.30245C75.8806 6.69122 78.2382 5.46874 80.6831 4.15895C83.3027 2.76184 86.1842 1.45205 87.6687 1.10278C89.5897 0.753499 91.3361 1.27742 92.3839 2.93648C93.4317 1.27742 95.1781 0.753499 97.0992 1.10278C98.5836 1.36473 101.465 2.76184 104.085 4.15895C106.53 5.46874 108.887 6.69122 110.11 7.30245V7.38977C108.625 11.9304 107.752 16.8203 107.752 21.8848C107.752 26.6874 108.713 31.3153 110.022 35.7686V35.8559C101.989 38.8247 97.0992 42.5795 92.4712 47.382H92.3839C87.756 42.5795 82.8661 38.8247 74.8327 35.8559V35.7686C76.0552 31.3153 77.0157 26.6874 77.0157 21.8848Z" stroke="#AE1E3C" stroke-width="0.424" stroke-miterlimit="3.864"/>
<path d="M101.727 6.51674C99.7184 5.4689 97.6227 4.50839 96.4875 4.33375C94.3046 3.89715 92.7328 5.64354 92.4709 6.60405L92.3835 6.77869L92.2962 6.60405C92.0343 5.55622 90.4625 3.89715 88.2795 4.33375C87.1444 4.59571 85.0487 5.55622 83.0404 6.51674C81.032 7.47725 79.111 8.52508 78.2378 8.96168C79.3729 12.8037 79.9842 16.7331 80.0715 20.9244H82.953V18.7414H89.502V12.1925H95.1777V18.7414H101.727V20.9244H104.696C104.696 16.7331 105.307 12.7164 106.529 8.96168C105.656 8.6124 103.735 7.56457 101.727 6.51674Z" fill="#AE1E3C"/>
<path d="M92.3841 43.1033C96.3135 39.4359 101.116 35.8558 106.443 34.0221C105.919 32.1884 105.395 29.6561 105.045 27.1238C104.783 24.8535 104.696 22.6706 104.696 22.4086H101.727V24.5916H95.1783V31.1405H89.5026V24.5916H82.9536V22.4086H80.0721C79.9848 26.2507 79.2862 30.6166 78.3257 34.0221C83.6522 35.7685 88.4547 39.3486 92.3841 43.1033Z" fill="#AE1E3C"/>
</svg>
