<svg width="36" height="36" viewBox="0 0 36 36" fill="none" xmlns="http://www.w3.org/2000/svg">
<path d="M30 10.4093C29.166 10.8726 28.1467 11.1506 27.2201 11.2432C28.2394 10.5946 28.9807 9.57529 29.3514 8.37066C28.4247 8.92664 27.4054 9.38996 26.2008 9.66795C25.2741 8.64865 24.0695 8 22.6795 8C19.9923 8 17.7683 10.3166 17.7683 13.2819C17.7683 13.6525 17.7683 14.1158 17.861 14.4865C13.7838 14.3012 10.1699 12.1699 7.76062 9.0193C7.2973 9.76062 7.11197 10.6873 7.11197 11.7066C7.11197 13.5598 7.94595 15.1351 9.24324 16.0618C8.40927 16.0618 7.66795 15.7838 7.01931 15.4131V15.5058C7.01931 18.0077 8.68726 20.139 10.9112 20.695C10.5405 20.7876 10.0772 20.8803 9.6139 20.8803C9.33591 20.8803 8.96525 20.8803 8.68726 20.7876C9.33591 22.9189 11.0965 24.4015 13.2278 24.4015C11.5598 25.7915 9.42857 26.6255 7.20463 26.6255C6.83398 26.6255 6.46332 26.6255 6 26.5328C8.13127 28.0154 10.7259 28.9421 13.5058 28.9421C22.4942 28.9421 27.4054 20.973 27.4054 14.0232C27.4054 13.8378 27.4054 13.5598 27.4054 13.3745C28.5174 12.4479 29.3514 11.5212 30 10.4093Z" fill="#1CB7EB"/>
</svg>
