<svg width="36" height="36" viewBox="0 0 36 36" fill="none" xmlns="http://www.w3.org/2000/svg">
<path fill-rule="evenodd" clip-rule="evenodd" d="M28.7993 10.3425C29.5185 11.1195 29.7525 12.8842 29.7525 12.8842C29.7525 12.8842 29.9925 14.955 29.9925 17.0265V18.9675C29.9925 21.039 29.7525 23.1097 29.7525 23.1097C29.7525 23.1097 29.5178 24.8737 28.7993 25.6493C27.9764 26.5675 27.0645 26.6628 26.5494 26.7166C26.4932 26.7225 26.4417 26.7278 26.3955 26.7337C23.0378 26.991 17.9963 27 17.9963 27C17.9963 27 11.7578 26.9392 9.8385 26.7428C9.74766 26.7246 9.63761 26.7105 9.51302 26.6945C8.90522 26.6163 7.95135 26.4937 7.19325 25.6485C6.474 24.873 6.24 23.109 6.24 23.109C6.24 23.109 6 21.039 6 18.9667V17.0258C6 14.955 6.24 12.8842 6.24 12.8842C6.24 12.8842 6.47475 11.1195 7.19325 10.3425C8.01974 9.42101 8.93463 9.32833 9.44858 9.27626C9.50269 9.27078 9.55235 9.26575 9.597 9.26025C12.954 9 17.9903 9 17.9903 9H18.0015C18.0015 9 23.0378 9 26.3955 9.26025C26.4402 9.26575 26.4899 9.27079 26.544 9.27627C27.0581 9.32834 27.9735 9.42105 28.7993 10.3425ZM22.5 18L15 22.5V13.5L22.5 18Z" fill="#E02F2F"/>
</svg>
