<?xml version="1.0" encoding="UTF-8"?>
<svg width="78px" height="60px" viewBox="0 0 78 60" version="1.1" xmlns="http://www.w3.org/2000/svg" xmlns:xlink="http://www.w3.org/1999/xlink">
    <!-- Generator: sketchtool 53 (72520) - https://sketchapp.com -->
    <title>3FF5993E-453D-45D9-9904-C089737D493A</title>
    <desc>Created with sketchtool.</desc>
    <g id="✅-Delivery" stroke="none" stroke-width="1" fill="none" fill-rule="evenodd">
        <g id="Payment" transform="translate(-461.000000, -874.000000)">
            <g id="mastercard_logo" transform="translate(451.000000, 864.000000)">
                <rect id="Rectangle" x="0" y="0" width="97.0578512" height="79.6099174"></rect>
                <path d="M24.0330579,69.5933884 L24.0330579,65.6264463 C24.0798282,64.951534 23.8339252,64.2891301 23.3580834,63.8082261 C22.8822416,63.3273222 22.2224768,63.0744236 21.5471074,63.1140496 C20.6570804,63.055701 19.8058377,63.4863893 19.3256198,64.2380165 C18.887799,63.5087996 18.0861344,63.0775244 17.2363636,63.1140496 C16.4964743,63.0766459 15.7921068,63.4338609 15.385124,64.0528926 L15.385124,63.2727273 L14.0099174,63.2727273 L14.0099174,69.5933884 L15.3983471,69.5933884 L15.3983471,66.1157025 C15.338551,65.6780762 15.4772084,65.2365998 15.7764808,64.9117485 C16.0757533,64.5868972 16.5044028,64.4125789 16.9454545,64.4363636 C17.8578512,64.4363636 18.3206612,65.031405 18.3206612,66.1024793 L18.3206612,69.6198347 L19.7090909,69.6198347 L19.7090909,66.1157025 C19.6517485,65.6785738 19.7912537,65.2385279 20.0899713,64.9142789 C20.3886889,64.5900299 20.8158434,64.4149836 21.2561983,64.4363636 C22.1950413,64.4363636 22.6446281,65.031405 22.6446281,66.1024793 L22.6446281,69.6198347 L24.0330579,69.5933884 Z M44.5752066,63.2727273 L42.3140496,63.2727273 L42.3140496,61.3553719 L40.9256198,61.3553719 L40.9256198,63.2727273 L39.6694215,63.2727273 L39.6694215,64.5289256 L40.9520661,64.5289256 L40.9520661,67.4380165 C40.9520661,68.9057851 41.5206612,69.7785124 43.1471074,69.7785124 C43.7547494,69.7805535 44.3506167,69.6109606 44.8661157,69.2892562 L44.4694215,68.1123967 C44.1006302,68.33237 43.68207,68.4552084 43.2528926,68.4694215 C42.5917355,68.4694215 42.3404959,68.046281 42.3404959,67.4115702 L42.3404959,64.5289256 L44.5884298,64.5289256 L44.5752066,63.2727273 Z M56.3041322,63.1140496 C55.6211024,63.0939619 54.9818069,63.4491261 54.6380165,64.0396694 L54.6380165,63.2727273 L53.2760331,63.2727273 L53.2760331,69.5933884 L54.6512397,69.5933884 L54.6512397,66.0495868 C54.6512397,65.0049587 55.1008264,64.4231405 55.9735537,64.4231405 C56.267692,64.4191171 56.5597455,64.4730346 56.8330579,64.5818182 L57.2561983,63.2595041 C56.9421302,63.1471497 56.611243,63.0890209 56.277686,63.0876033 L56.3041322,63.1140496 Z M38.5719008,63.7752066 C37.7934711,63.3123815 36.8984793,63.0828964 35.9933884,63.1140496 C34.3933884,63.1140496 33.3487603,63.8809917 33.3487603,65.1371901 C33.3487603,66.168595 34.1157025,66.8033058 35.5305785,67.0016529 L36.1917355,67.0942149 C36.9454545,67.2 37.3024793,67.3983471 37.3024793,67.7553719 C37.3024793,68.2446281 36.8,68.522314 35.861157,68.522314 C35.1059851,68.5441733 34.3654236,68.3112924 33.7586777,67.861157 L33.0975207,68.9322314 C33.8985877,69.491564 34.858064,69.7789434 35.8347107,69.7520661 C37.6595041,69.7520661 38.7173554,68.892562 38.7173554,67.6892562 C38.7173554,66.4859504 37.8842975,65.9966942 36.5090909,65.7983471 L35.8479339,65.7057851 C35.2528926,65.6264463 34.7768595,65.507438 34.7768595,65.0842975 C34.7768595,64.661157 35.2264463,64.3438017 35.9801653,64.3438017 C36.6768103,64.3518943 37.3597328,64.5385597 37.9636364,64.8859504 L38.5719008,63.7752066 Z M75.4049587,63.1140496 C74.7219288,63.0939619 74.0826334,63.4491261 73.738843,64.0396694 L73.738843,63.2727273 L72.3768595,63.2727273 L72.3768595,69.5933884 L73.7520661,69.5933884 L73.7520661,66.0495868 C73.7520661,65.0049587 74.2016529,64.4231405 75.0743802,64.4231405 C75.3685185,64.4191171 75.6605719,64.4730346 75.9338843,64.5818182 L76.3570248,63.2595041 C76.0429567,63.1471497 75.7120694,63.0890209 75.3785124,63.0876033 L75.4049587,63.1140496 Z M57.6859504,66.4198347 C57.6528779,67.3179735 57.9998049,68.1884711 58.641576,68.8176586 C59.2833472,69.446846 60.1605434,69.7764691 61.0578512,69.7256198 C61.8835561,69.7676297 62.6950307,69.4987107 63.3322314,68.9719008 L62.6710744,67.861157 C62.1956833,68.2236768 61.6159886,68.4230918 61.0181818,68.4297521 C59.9640997,68.344465 59.1521245,67.4641384 59.1521245,66.4066116 C59.1521245,65.3490847 59.9640997,64.4687582 61.0181818,64.3834711 C61.6159886,64.3901314 62.1956833,64.5895464 62.6710744,64.9520661 L63.3322314,63.8413223 C62.6950307,63.3145124 61.8835561,63.0455935 61.0578512,63.0876033 C60.1605434,63.036754 59.2833472,63.3663772 58.641576,63.9955646 C57.9998049,64.624752 57.6528779,65.4952497 57.6859504,66.3933884 L57.6859504,66.4198347 Z M70.5652893,66.4198347 L70.5652893,63.2727273 L69.1900826,63.2727273 L69.1900826,64.0396694 C68.7162997,63.4300496 67.9781661,63.0855873 67.2066116,63.1140496 C65.3808769,63.1140496 63.9008264,64.5941 63.9008264,66.4198347 C63.9008264,68.2455694 65.3808769,69.7256198 67.2066116,69.7256198 C67.9781661,69.7540822 68.7162997,69.4096198 69.1900826,68.8 L69.1900826,69.5669421 L70.5652893,69.5669421 L70.5652893,66.4198347 Z M65.4479339,66.4198347 C65.5090876,65.3822602 66.3883913,64.5838733 67.4270351,64.6228579 C68.4656788,64.6618424 69.2826593,65.5238978 69.2658618,66.5631371 C69.2490642,67.6023764 68.4046503,68.4375781 67.3652893,68.4429752 C66.8360589,68.4496716 66.3280822,68.2350267 65.9640081,67.8508658 C65.599934,67.4667048 65.4128526,66.9479435 65.4479339,66.4198347 L65.4479339,66.4198347 Z M48.8528926,63.1140496 C47.0271579,63.1396099 45.5678281,64.640381 45.5933884,66.4661157 C45.6189487,68.2918504 47.1197198,69.7511801 48.9454545,69.7256198 C49.8966872,69.7744455 50.8321358,69.4681274 51.5702479,68.8661157 L50.9090909,67.8479339 C50.3870162,68.2666305 49.7402326,68.4992865 49.0710744,68.5090909 C48.1258621,68.5903802 47.2876564,67.9045756 47.1801653,66.9619835 L51.8743802,66.9619835 C51.8743802,66.7900826 51.8743802,66.6181818 51.8743802,66.4330579 C51.8743802,64.4495868 50.6446281,63.1272727 48.8727273,63.1272727 L48.8528926,63.1140496 Z M48.8528926,64.3438017 C49.2684979,64.3349411 49.6705917,64.4915899 49.9706704,64.7792687 C50.2707491,65.0669474 50.444217,65.4620768 50.4528926,65.877686 L47.1471074,65.877686 C47.1969113,64.9949245 47.9427955,64.3136445 48.8264463,64.3438017 L48.8528926,64.3438017 Z M83.3057851,66.4330579 L83.3057851,60.7338843 L81.9834711,60.7338843 L81.9834711,64.0396694 C81.5096882,63.4300496 80.7715546,63.0855873 80,63.1140496 C78.1742653,63.1140496 76.6942149,64.5941 76.6942149,66.4198347 C76.6942149,68.2455694 78.1742653,69.7256198 80,69.7256198 C80.7715546,69.7540822 81.5096882,69.4096198 81.9834711,68.8 L81.9834711,69.5669421 L83.3057851,69.5669421 L83.3057851,66.4330579 Z M85.6,68.6743802 C85.685959,68.673327 85.7712983,68.6890474 85.8512397,68.7206612 C85.9271688,68.7516456 85.9966708,68.7964857 86.0561983,68.8528926 C86.1142937,68.9098984 86.1613637,68.9771414 86.1950413,69.0512397 C86.2627181,69.207304 86.2627181,69.3844316 86.1950413,69.5404959 C86.1613637,69.6145942 86.1142937,69.6818371 86.0561983,69.738843 C85.9966708,69.7952499 85.9271688,69.8400899 85.8512397,69.8710744 C85.7720875,69.9060002 85.6865152,69.9240154 85.6,69.9239669 C85.3441651,69.9220386 85.1124051,69.7726822 85.0049587,69.5404959 C84.9380655,69.3842699 84.9380655,69.2074656 85.0049587,69.0512397 C85.0386363,68.9771414 85.0857063,68.9098984 85.1438017,68.8528926 C85.2033292,68.7964857 85.2728312,68.7516456 85.3487603,68.7206612 C85.434876,68.6864055 85.5272315,68.6706375 85.6198347,68.6743802 L85.6,68.6743802 Z M85.6,69.7917355 C85.6659897,69.7921364 85.7313225,69.7786193 85.7917355,69.7520661 C85.8486191,69.7266694 85.9002078,69.6907816 85.9438017,69.646281 C86.1152377,69.4592349 86.1152377,69.17217 85.9438017,68.985124 C85.9003117,68.9405006 85.8486981,68.9045954 85.7917355,68.8793388 C85.7312629,68.8529728 85.6659702,68.839464 85.6,68.8396694 C85.5340868,68.8400177 85.4689045,68.8535037 85.4082645,68.8793388 C85.3488625,68.9036959 85.2949171,68.9396595 85.2495868,68.985124 C85.0781508,69.17217 85.0781508,69.4592349 85.2495868,69.646281 C85.2950285,69.6916096 85.3489451,69.727554 85.4082645,69.7520661 C85.4749684,69.7808317 85.5472408,69.7943828 85.6198347,69.7917355 L85.6,69.7917355 Z M85.6396694,69.0049587 C85.7013893,69.0019656 85.7622088,69.0206793 85.8115702,69.0578512 C85.8526297,69.0918321 85.8747844,69.1435265 85.8710744,69.1966942 C85.8729937,69.2410943 85.8562053,69.2842645 85.8247934,69.3157025 C85.7864715,69.3505097 85.7375846,69.3714613 85.6859504,69.3752066 L85.877686,69.5933884 L85.7256198,69.5933884 L85.5471074,69.3752066 L85.4876033,69.3752066 L85.4876033,69.5933884 L85.3619835,69.5933884 L85.3619835,69.0115702 L85.6396694,69.0049587 Z M85.4942149,69.1173554 L85.4942149,69.2760331 L85.6396694,69.2760331 C85.6655528,69.28375 85.6931249,69.28375 85.7190083,69.2760331 C85.7284383,69.2573192 85.7284383,69.2352428 85.7190083,69.2165289 C85.7284383,69.197815 85.7284383,69.1757387 85.7190083,69.1570248 C85.6931249,69.1493079 85.6655528,69.1493079 85.6396694,69.1570248 L85.4942149,69.1173554 Z M78.2214876,66.4330579 C78.2826413,65.3954834 79.1619451,64.5970965 80.2005888,64.636081 C81.2392325,64.6750655 82.0562131,65.5371209 82.0394155,66.5763602 C82.0226179,67.6155996 81.178204,68.4508013 80.138843,68.4561983 C79.6096126,68.4628947 79.1016359,68.2482499 78.7375618,67.8640889 C78.3734877,67.4799279 78.1864063,66.9611667 78.2214876,66.4330579 L78.2214876,66.4330579 Z M31.7884298,66.4330579 L31.7884298,63.2727273 L30.4132231,63.2727273 L30.4132231,64.0396694 C29.9394402,63.4300496 29.2013066,63.0855873 28.4297521,63.1140496 C26.6040174,63.1140496 25.1239669,64.5941 25.1239669,66.4198347 C25.1239669,68.2455694 26.6040174,69.7256198 28.4297521,69.7256198 C29.2013066,69.7540822 29.9394402,69.4096198 30.4132231,68.8 L30.4132231,69.5669421 L31.7884298,69.5669421 L31.7884298,66.4330579 Z M26.6710744,66.4330579 C26.7322281,65.3954834 27.6115318,64.5970965 28.6501756,64.636081 C29.6888193,64.6750655 30.5057998,65.5371209 30.4890023,66.5763602 C30.4722047,67.6155996 29.6277908,68.4508013 28.5884298,68.4561983 C28.0569187,68.4666329 27.5454055,68.2536244 27.1783991,67.8690218 C26.8113927,67.4844192 26.6225549,66.9634983 26.6578512,66.4330579 L26.6710744,66.4330579 Z" id="Shape" fill="#231F20" fill-rule="nonzero"></path>
                <g id="_Group_" transform="translate(9.917355, 9.917355)">
                    <rect id="Rectangle" fill="#FF5F00" x="28.1983471" y="5.19008264" width="20.8264463" height="37.4280992"></rect>
                    <path d="M29.5206612,23.907438 C29.5128745,16.6026395 32.8653513,9.70019455 38.6115702,5.19008264 C28.8527539,-2.47930461 14.8387024,-1.36219203 6.41811431,7.75634368 C-2.00247374,16.8748794 -2.00247374,30.9333851 6.41811431,40.0519208 C14.8387024,49.1704565 28.8527539,50.2875691 38.6115702,42.6181818 C32.8671793,38.1095017 29.5149073,31.2099164 29.5206612,23.907438 L29.5206612,23.907438 Z" id="_Path_" fill="#EB001B"></path>
                    <path d="M77.1239669,23.907438 C77.1237545,33.0204168 71.9202783,41.3333225 63.7234746,45.3156323 C55.5266709,49.2979421 45.7755965,48.250509 38.6115702,42.6181818 C44.3534547,38.1056739 47.7059791,31.207006 47.7059791,23.9041322 C47.7059791,16.6012585 44.3534547,9.70259053 38.6115702,5.19008264 C45.7755965,-0.442244512 55.5266709,-1.48967763 63.7234746,2.49263214 C71.9202783,6.47494192 77.1237545,14.7878477 77.1239669,23.9008264 L77.1239669,23.907438 Z" id="Path" fill="#F79E1B"></path>
                    <path d="M74.8495868,38.7185276 L74.8495868,37.8958326 L75.1603306,37.8958326 L75.1603306,37.7256198 L74.3735537,37.7256198 L74.3735537,37.8958326 L74.7107438,37.8958326 L74.7107438,38.7185276 L74.8495868,38.7185276 Z M76.3768595,38.7185276 L76.3768595,37.7256198 L76.138843,37.7256198 L75.861157,38.4348397 L75.5834711,37.7256198 L75.3719008,37.7256198 L75.3719008,38.7185276 L75.5438017,38.7185276 L75.5438017,37.9738468 L75.8016529,38.6192369 L75.9801653,38.6192369 L76.2380165,37.9738468 L76.2380165,38.7256198 L76.3768595,38.7185276 Z" id="Shape" fill="#F79E1B" fill-rule="nonzero"></path>
                </g>
            </g>
        </g>
    </g>
</svg>