<?xml version="1.0" encoding="UTF-8"?>
<svg width="93px" height="30px" viewBox="0 0 93 30" version="1.1" xmlns="http://www.w3.org/2000/svg" xmlns:xlink="http://www.w3.org/1999/xlink">
    <!-- Generator: sketchtool 53 (72520) - https://sketchapp.com -->
    <title>480D5DE4-53B0-471A-BCD0-F39CBE20413E</title>
    <desc>Created with sketchtool.</desc>
    <defs>
        <linearGradient x1="45.9741966%" y1="44.576816%" x2="54.8768726%" y2="55.2139809%" id="linearGradient-1">
            <stop stop-color="#222357" offset="0%"></stop>
            <stop stop-color="#254AA5" offset="100%"></stop>
        </linearGradient>
    </defs>
    <g id="✅-Delivery" stroke="none" stroke-width="1" fill="none" fill-rule="evenodd">
        <g id="Payment" transform="translate(-674.000000, -889.000000)" fill="url(#linearGradient-1)" fill-rule="nonzero">
            <g id="visa_logo" transform="translate(674.000000, 889.000000)">
                <path d="M47.8543713,20.3276187 C47.8015793,16.1654025 51.5636892,13.8425636 54.3977751,12.4616415 C57.3096593,11.0445986 58.2876965,10.1360241 58.2765824,8.86902101 C58.2543542,6.92961727 55.9537435,6.07383452 53.8003941,6.04049234 C50.0438414,5.98214349 47.8599278,7.05465047 46.1233561,7.86597698 L44.7702192,1.53374033 C46.5123481,0.730749372 49.7382047,0.0305634889 53.0835372,-1.80722894e-07 C60.9356216,-1.80722894e-07 66.0730966,3.87602881 66.100882,9.88595769 C66.1314455,17.5129825 55.550859,17.9353169 55.6231001,21.3445552 C55.6481067,22.378163 56.63448,23.4812337 58.7961647,23.7618636 C59.8658931,23.9035679 62.8194553,24.0119301 66.1675663,22.469854 L67.4818041,28.5964805 C65.6813259,29.2522101 63.3668227,29.8801547 60.4855023,29.8801547 C53.0946513,29.8801547 47.8960489,25.9513339 47.8543713,20.3276187 M80.1101566,29.3522367 C78.6764425,29.3522367 77.4677884,28.5159036 76.9287564,27.2322295 L65.7118894,0.450119317 L73.5584172,0.450119317 L75.1199429,4.76515377 L84.7085996,4.76515377 L85.6143954,0.450119317 L92.5301205,0.450119317 L86.4951849,29.3522367 L80.1101566,29.3522367 M81.2076701,21.5446084 L83.4721601,10.6917271 L77.2705139,10.6917271 L81.2076701,21.5446084 M38.3407341,29.3522367 L32.155759,0.450119317 L39.6327437,0.450119317 L45.8149406,29.3522367 L38.3407341,29.3522367 M27.2794645,29.3522367 L19.4968428,9.68034752 L16.3487847,26.4070104 C15.9792422,28.2741727 14.5205216,29.3522367 12.9006471,29.3522367 L0.177824987,29.3522367 L0,28.513125 C2.6118045,27.9463079 5.57925896,27.0321763 7.37695843,26.0541389 C8.47725054,25.4567581 8.79122277,24.9343972 9.15242978,23.5145758 L15.1151239,0.450119317 L23.0172217,0.450119317 L35.131549,29.3522367 L27.2794645,29.3522367" id="Shape" transform="translate(46.265060, 14.940077) scale(-1, 1) rotate(-180.000000) translate(-46.265060, -14.940077) "></path>
            </g>
        </g>
    </g>
</svg>